<svg width="11" height="11" viewBox="0 0 11 11" fill="none" xmlns="http://www.w3.org/2000/svg">
<path d="M7.5075 10.2487H2.51186C1.17715 10.2487 0.328649 9.45263 0.25238 8.12268L0.004505 4.19004C-0.0336296 3.59419 0.171344 3.02217 0.581291 2.58839C0.986472 2.15461 1.55849 1.90673 2.14958 1.90673C2.30212 1.90673 2.44989 1.81616 2.52139 1.67316L2.8646 0.991501C3.14585 0.433782 3.85133 0 4.46626 0H5.55787C6.17279 0 6.87351 0.433782 7.15476 0.986734L7.49797 1.68269C7.56947 1.81616 7.71247 1.90673 7.86978 1.90673C8.46087 1.90673 9.03289 2.15461 9.43807 2.58839C9.84801 3.02694 10.053 3.59419 10.0149 4.19004L9.76698 8.12745C9.68118 9.47646 8.85651 10.2487 7.5075 10.2487ZM4.46626 0.715025C4.11352 0.715025 3.66543 0.991501 3.50336 1.31088L3.16015 1.9973C2.95994 2.38342 2.57383 2.62176 2.14958 2.62176C1.74917 2.62176 1.37735 2.78383 1.10088 3.07461C0.829167 3.36538 0.690929 3.74673 0.71953 4.14238L0.967405 8.07978C1.0246 9.04268 1.54419 9.53366 2.51186 9.53366H7.5075C8.4704 9.53366 8.98999 9.04268 9.05195 8.07978L9.29983 4.14238C9.32366 3.74673 9.19019 3.36538 8.91848 3.07461C8.64201 2.78383 8.27019 2.62176 7.86978 2.62176C7.44553 2.62176 7.05942 2.38342 6.85921 2.00684L6.51123 1.31088C6.35393 0.996268 5.90585 0.719791 5.5531 0.719791H4.46626V0.715025Z" fill="#292D32"/>
<path d="M5.72488 3.57512H4.29483C4.09939 3.57512 3.93732 3.41305 3.93732 3.21761C3.93732 3.02217 4.09939 2.8601 4.29483 2.8601H5.72488C5.92032 2.8601 6.08239 3.02217 6.08239 3.21761C6.08239 3.41305 5.92032 3.57512 5.72488 3.57512Z" fill="#292D32"/>
<path d="M5.00982 8.34195C3.95635 8.34195 3.10309 7.48869 3.10309 6.43522C3.10309 5.38175 3.95635 4.52849 5.00982 4.52849C6.06329 4.52849 6.91655 5.38175 6.91655 6.43522C6.91655 7.48869 6.06329 8.34195 5.00982 8.34195ZM5.00982 5.24351C4.352 5.24351 3.81811 5.7774 3.81811 6.43522C3.81811 7.09304 4.352 7.62693 5.00982 7.62693C5.66764 7.62693 6.20153 7.09304 6.20153 6.43522C6.20153 5.7774 5.66764 5.24351 5.00982 5.24351Z" fill="#292D32"/>
</svg>
