<svg width="11" height="10" viewBox="0 0 11 10" fill="none" xmlns="http://www.w3.org/2000/svg">
<path d="M10.2516 2.47027H7.28729C7.08473 2.47027 6.91675 2.30229 6.91675 2.09973C6.91675 1.89717 7.08473 1.72919 7.28729 1.72919H10.2516C10.4542 1.72919 10.6222 1.89717 10.6222 2.09973C10.6222 2.30229 10.4542 2.47027 10.2516 2.47027Z" fill="#292D32"/>
<path d="M2.34676 2.47027H0.370541C0.167978 2.47027 0 2.30229 0 2.09973C0 1.89717 0.167978 1.72919 0.370541 1.72919H2.34676C2.54932 1.72919 2.7173 1.89717 2.7173 2.09973C2.7173 2.30229 2.54932 2.47027 2.34676 2.47027Z" fill="#292D32"/>
<path d="M4.32294 4.19946C3.16685 4.19946 2.22321 3.25582 2.22321 2.09973C2.22321 0.943643 3.16685 0 4.32294 0C5.47902 0 6.42267 0.943643 6.42267 2.09973C6.42267 3.25582 5.47902 4.19946 4.32294 4.19946ZM4.32294 0.741081C3.57197 0.741081 2.96429 1.34877 2.96429 2.09973C2.96429 2.85069 3.57197 3.45838 4.32294 3.45838C5.0739 3.45838 5.68158 2.85069 5.68158 2.09973C5.68158 1.34877 5.0739 0.741081 4.32294 0.741081Z" fill="#292D32"/>
<path d="M10.2516 7.90487H8.27539C8.07282 7.90487 7.90485 7.73689 7.90485 7.53433C7.90485 7.33176 8.07282 7.16378 8.27539 7.16378H10.2516C10.4542 7.16378 10.6221 7.33176 10.6221 7.53433C10.6221 7.73689 10.4542 7.90487 10.2516 7.90487Z" fill="#292D32"/>
<path d="M3.33487 7.90487H0.370541C0.167978 7.90487 0 7.73689 0 7.53433C0 7.33176 0.167978 7.16378 0.370541 7.16378H3.33487C3.53743 7.16378 3.70541 7.33176 3.70541 7.53433C3.70541 7.73689 3.53743 7.90487 3.33487 7.90487Z" fill="#292D32"/>
<path d="M6.29919 9.63406C5.14311 9.63406 4.19946 8.69041 4.19946 7.53433C4.19946 6.37824 5.14311 5.4346 6.29919 5.4346C7.45528 5.4346 8.39892 6.37824 8.39892 7.53433C8.39892 8.69041 7.45528 9.63406 6.29919 9.63406ZM6.29919 6.17568C5.54823 6.17568 4.94054 6.78336 4.94054 7.53433C4.94054 8.28529 5.54823 8.89297 6.29919 8.89297C7.05016 8.89297 7.65784 8.28529 7.65784 7.53433C7.65784 6.78336 7.05016 6.17568 6.29919 6.17568Z" fill="#292D32"/>
</svg>
