<svg width="17" height="19" viewBox="0 0 17 19" fill="none" xmlns="http://www.w3.org/2000/svg">
<path d="M7.11198 18.2297C6.70461 18.2297 6.29726 18.1278 5.92384 17.9242C5.16851 17.4998 4.71868 16.7445 4.71868 15.8873V11.3469C4.71868 10.914 4.43859 10.2775 4.1755 9.94654L0.950524 6.56032C0.415854 6.02565 0 5.0921 0 4.40466V2.43574C0 1.06937 1.03541 0 2.35087 0H13.6723C14.9708 0 16.0231 1.05238 16.0231 2.35087V4.23494C16.0231 5.12606 15.4885 6.15295 14.9793 6.65367C14.7331 6.89979 14.3258 6.89979 14.0797 6.65367C13.8335 6.40755 13.8335 6.00019 14.0797 5.75407C14.3937 5.44006 14.7501 4.73567 14.7501 4.23494V2.35087C14.7501 1.75679 14.2664 1.27302 13.6723 1.27302H2.35087C1.7483 1.27302 1.27302 1.78226 1.27302 2.43574V4.40466C1.27302 4.71868 1.52763 5.33823 1.85861 5.66922L5.12608 9.10635C5.55891 9.64102 5.9832 10.5406 5.9832 11.3469V15.8873C5.9832 16.4475 6.36514 16.719 6.53487 16.8124C6.89981 17.0161 7.33263 17.0076 7.67211 16.8039L8.86026 16.0401C9.10638 15.8958 9.34401 15.429 9.34401 15.115C9.34401 14.7671 9.63256 14.4785 9.98052 14.4785C10.3285 14.4785 10.617 14.7671 10.617 15.115C10.617 15.8788 10.1418 16.753 9.53921 17.1179L8.35954 17.8817C7.97763 18.1109 7.54481 18.2297 7.11198 18.2297Z" fill="#0ECA65"/>
<path d="M11.4745 13.579C9.62436 13.579 8.12219 12.0768 8.12219 10.2267C8.12219 8.37657 9.62436 6.87442 11.4745 6.87442C13.3246 6.87442 14.8268 8.37657 14.8268 10.2267C14.8268 12.0768 13.3246 13.579 11.4745 13.579ZM11.4745 8.14743C10.3288 8.14743 9.39522 9.08098 9.39522 10.2267C9.39522 11.3724 10.3288 12.306 11.4745 12.306C12.6202 12.306 13.5538 11.3724 13.5538 10.2267C13.5538 9.08098 12.6202 8.14743 11.4745 8.14743Z" fill="#0ECA65"/>
<path d="M14.6989 14.0882C14.5376 14.0882 14.3764 14.0288 14.2491 13.9015L13.4004 13.0528C13.1543 12.8067 13.1543 12.3993 13.4004 12.1532C13.6465 11.9071 14.0539 11.9071 14.3 12.1532L15.1487 13.0019C15.3948 13.248 15.3948 13.6554 15.1487 13.9015C15.0299 14.0203 14.8601 14.0882 14.6989 14.0882Z" fill="#0ECA65"/>
</svg>
