<svg width="17" height="17" viewBox="0 0 17 17" fill="none" xmlns="http://www.w3.org/2000/svg">
<path d="M8.11372 0C3.64306 0 0 3.64306 0 8.11372C0 12.5844 3.64306 16.2274 8.11372 16.2274C12.5844 16.2274 16.2274 12.5844 16.2274 8.11372C16.2274 3.64306 12.5844 0 8.11372 0ZM10.8399 9.97988C11.0752 10.2152 11.0752 10.6046 10.8399 10.8399C10.7182 10.9616 10.5641 11.0184 10.4099 11.0184C10.2557 11.0184 10.1016 10.9616 9.97988 10.8399L8.11372 8.97378L6.24757 10.8399C6.12586 10.9616 5.9717 11.0184 5.81754 11.0184C5.66338 11.0184 5.50922 10.9616 5.38751 10.8399C5.15222 10.6046 5.15222 10.2152 5.38751 9.97988L7.25367 8.11372L5.38751 6.24757C5.15222 6.01227 5.15222 5.62281 5.38751 5.38751C5.62281 5.15222 6.01227 5.15222 6.24757 5.38751L8.11372 7.25367L9.97988 5.38751C10.2152 5.15222 10.6046 5.15222 10.8399 5.38751C11.0752 5.62281 11.0752 6.01227 10.8399 6.24757L8.97378 8.11372L10.8399 9.97988Z" fill="#CA0E0E"/>
</svg>
