<svg width="12" height="13" viewBox="0 0 12 13" fill="none" xmlns="http://www.w3.org/2000/svg">
<path d="M11.3204 3.30789C11.3083 3.30789 11.2902 3.30789 11.2721 3.30789C8.07887 2.98797 4.89166 2.86724 1.7346 3.18717L0.50318 3.30789C0.249652 3.33204 0.0263052 3.15095 0.00215963 2.89742C-0.0219859 2.64389 0.159106 2.42658 0.406598 2.40244L1.63802 2.28171C4.8494 1.95574 8.10302 2.08251 11.3627 2.40244C11.6102 2.42658 11.7913 2.64993 11.7671 2.89742C11.749 3.13284 11.5498 3.30789 11.3204 3.30789Z" fill="#CA0E0E"/>
<path d="M3.7752 2.69827C3.75105 2.69827 3.72691 2.69827 3.69673 2.69223C3.45527 2.64998 3.28625 2.41456 3.32851 2.1731L3.46131 1.38233C3.55789 0.80284 3.69069 0 5.09715 0H6.67868C8.0912 0 8.224 0.833022 8.31454 1.38837L8.44734 2.1731C8.4896 2.42059 8.32058 2.65601 8.07912 2.69223C7.83163 2.73449 7.59621 2.56547 7.55999 2.32401L7.42719 1.53928C7.34268 1.01411 7.32457 0.911496 6.68472 0.911496H5.10318C4.46335 0.911496 4.45128 0.996005 4.36073 1.53324L4.22189 2.31798C4.18567 2.54132 3.99251 2.69827 3.7752 2.69827Z" fill="#CA0E0E"/>
<path d="M7.82584 12.9783H3.95047C1.84377 12.9783 1.75926 11.8132 1.69286 10.8716L1.30049 4.79291C1.28238 4.54541 1.47555 4.32811 1.72304 4.31C1.97657 4.29793 2.18784 4.48506 2.20595 4.73255L2.59832 10.8112C2.66472 11.7287 2.68886 12.0728 3.95047 12.0728H7.82584C9.09348 12.0728 9.11763 11.7287 9.17799 10.8112L9.57036 4.73255C9.58847 4.48506 9.80578 4.29793 10.0533 4.31C10.3008 4.32811 10.4939 4.53938 10.4758 4.79291L10.0835 10.8716C10.0171 11.8132 9.93254 12.9783 7.82584 12.9783Z" fill="#CA0E0E"/>
<path d="M6.89011 9.65827H4.87999C4.63248 9.65827 4.42725 9.45303 4.42725 9.20554C4.42725 8.95805 4.63248 8.75281 4.87999 8.75281H6.89011C7.1376 8.75281 7.34284 8.95805 7.34284 9.20554C7.34284 9.45303 7.1376 9.65827 6.89011 9.65827Z" fill="#CA0E0E"/>
<path d="M7.39695 7.24359H4.37875C4.13126 7.24359 3.92603 7.03836 3.92603 6.79086C3.92603 6.54337 4.13126 6.33813 4.37875 6.33813H7.39695C7.64444 6.33813 7.84968 6.54337 7.84968 6.79086C7.84968 7.03836 7.64444 7.24359 7.39695 7.24359Z" fill="#CA0E0E"/>
</svg>
