<svg width="252" height="252" viewBox="0 0 252 252" fill="none" xmlns="http://www.w3.org/2000/svg">
<path d="M252 192.729H0V192.855H252V192.729Z" fill="#EBEBEB"/>
<path d="M226.75 200.841H210.057V200.967H226.75V200.841Z" fill="#EBEBEB"/>
<path d="M166.935 202.209H162.554V202.335H166.935V202.209Z" fill="#EBEBEB"/>
<path d="M209.552 196.161H199.879V196.287H209.552V196.161Z" fill="#EBEBEB"/>
<path d="M48.2086 197.008H26.4393V197.134H48.2086V197.008Z" fill="#EBEBEB"/>
<path d="M55.888 197.008H52.6962V197.134H55.888V197.008Z" fill="#EBEBEB"/>
<path d="M113.474 199.136H66.2614V199.262H113.474V199.136Z" fill="#EBEBEB"/>
<path d="M119.455 170.251H22.1332C20.5471 170.251 19.2563 168.96 19.2563 167.374V30.5726C19.2563 28.9865 20.5471 27.6958 22.1332 27.6958H119.455C121.041 27.6958 122.331 28.9865 122.331 30.5726V167.374C122.331 168.96 121.041 170.251 119.455 170.251ZM22.1332 27.8223C20.6161 27.8223 19.3823 29.0561 19.3823 30.5731V167.375C19.3823 168.892 20.6161 170.126 22.1332 170.126H119.455C120.972 170.126 122.205 168.892 122.205 167.375V30.5726C122.205 29.0561 120.972 27.8218 119.455 27.8218L22.1332 27.8223Z" fill="#EBEBEB"/>
<path d="M228.468 170.251H131.147C129.561 170.251 128.271 168.96 128.271 167.374V30.5726C128.271 28.9865 129.561 27.6958 131.147 27.6958H228.468C230.055 27.6958 231.345 28.9865 231.345 30.5726V167.374C231.346 168.96 230.055 170.251 228.468 170.251ZM131.147 27.8223C129.63 27.8223 128.397 29.0561 128.397 30.5731V167.375C128.397 168.892 129.63 170.126 131.147 170.126H228.468C229.985 170.126 231.219 168.892 231.219 167.375V30.5726C231.219 29.0561 229.985 27.8218 228.468 27.8218L131.147 27.8223Z" fill="#EBEBEB"/>
<path d="M198.108 38.3862H51.0481V107.191H198.108V38.3862Z" fill="#E6E6E6"/>
<path d="M200.324 38.3862H52.0833V107.191H200.324V38.3862Z" fill="#F0F0F0"/>
<path d="M198.108 107.191H51.0481V110.701H198.108V107.191Z" fill="#E6E6E6"/>
<path d="M204.015 107.191H55.774V110.701H204.015V107.191Z" fill="#F0F0F0"/>
<path d="M197.222 104.09V41.488L55.1849 41.488V104.09L197.222 104.09Z" fill="#FAFAFA"/>
<path d="M70.4254 104.09L79.0579 41.4883H92.5288L83.8958 104.09H70.4254Z" fill="white"/>
<path d="M56.6208 101.003C56.4983 101.003 56.399 100.903 56.399 100.781V43.5058C56.399 43.3833 56.4983 43.2841 56.6208 43.2841C56.7433 43.2841 56.8426 43.3833 56.8426 43.5058V100.781C56.8426 100.903 56.7433 101.003 56.6208 101.003Z" fill="#F0F0F0"/>
<path d="M86.7898 104.09L95.4223 41.4883H100.674L92.0415 104.09H86.7898Z" fill="white"/>
<path d="M197.222 104.09V41.4879H196.829V104.09H197.222Z" fill="#E6E6E6"/>
<path opacity="0.6" d="M201.057 46.1644H53.9971L53.7118 42.6934H200.772L201.057 46.1644Z" fill="#EBEBEB"/>
<path opacity="0.6" d="M201.057 51.8571H53.9971L53.7118 48.386H200.772L201.057 51.8571Z" fill="#EBEBEB"/>
<path opacity="0.6" d="M201.057 57.5498H53.9971L53.7118 54.0787H200.772L201.057 57.5498Z" fill="#EBEBEB"/>
<path opacity="0.6" d="M201.057 63.2424H53.9971L53.7118 59.7714H200.772L201.057 63.2424Z" fill="#EBEBEB"/>
<path opacity="0.6" d="M201.057 68.9351H53.9971L53.7118 65.4641H200.772L201.057 68.9351Z" fill="#EBEBEB"/>
<path opacity="0.6" d="M201.057 74.6278H53.9971L53.7118 71.1567H200.772L201.057 74.6278Z" fill="#EBEBEB"/>
<path d="M221.256 124.488H198.813V192.729H221.256V124.488Z" fill="#E6E6E6"/>
<path d="M215.263 192.729H221.256V183.309H208.98L215.263 192.729Z" fill="#FAFAFA"/>
<path d="M160.063 124.488H137.62V192.729H160.063V124.488Z" fill="#E6E6E6"/>
<path d="M221.256 124.488H154.833V189.487H221.256V124.488Z" fill="#FAFAFA"/>
<path d="M160.826 192.729H154.833V183.309H167.11L160.826 192.729Z" fill="#FAFAFA"/>
<path d="M216.607 148.709H159.482V164.975H216.607V148.709Z" fill="#F0F0F0"/>
<path d="M216.607 168.451H159.482V184.718H216.607V168.451Z" fill="#F0F0F0"/>
<path d="M205.275 150.448H170.814C169.513 150.448 168.458 149.393 168.458 148.092V147.3H207.631V148.092C207.631 149.393 206.576 150.448 205.275 150.448Z" fill="#FAFAFA"/>
<path d="M216.607 128.966H159.482V145.232H216.607V128.966Z" fill="#F0F0F0"/>
<path d="M205.275 130.705H170.814C169.513 130.705 168.458 129.65 168.458 128.349V127.557H207.631V128.349C207.631 129.65 206.576 130.705 205.275 130.705Z" fill="#FAFAFA"/>
<path d="M205.275 170.191H170.814C169.513 170.191 168.458 169.136 168.458 167.835V167.043H207.631V167.835C207.631 169.136 206.576 170.191 205.275 170.191Z" fill="#FAFAFA"/>
<path d="M26.9221 139.037C28.1726 135.447 38.0318 140.329 42.0326 146.277C44.6972 150.239 46.3251 154.467 47.0852 160.148C46.9939 153.667 46.8906 146.703 46.7893 140.131C45.9804 138.493 44.1327 134.715 42.8037 131.721C38.3695 121.733 27.8258 118.013 24.1834 111.707C19.4105 103.443 19.4383 91.0481 23.501 86.5751C27.032 82.6883 38.7243 108.971 40.0413 111.907C44.5712 122.007 45.8882 129.502 46.7369 136.763C46.6401 130.591 46.5479 124.924 46.4718 120.551C46.2243 106.289 45.9149 101.702 45.7733 100.29C45.2849 99.6005 44.7088 98.7971 44.3737 98.3662C41.5442 94.7233 35.2659 90.3869 32.1285 85.0913C27.5471 77.3595 28.2875 68.1055 31.501 64.6597C34.8607 61.0566 40.8003 69.5722 43.9538 78.0096C47.1073 86.4471 45.7596 94.5227 46.6442 101.53C46.8291 102.904 47.0191 108.124 47.1976 115.365C48.1542 107.574 50.0598 102.355 53.5913 97.4912C57.9348 91.5093 61.6845 84.2245 65.2634 85.1659C68.8423 86.1074 66.9161 95.7464 64.0846 102.513C61.5631 108.539 49.1244 114.55 47.2913 119.395C47.507 129.21 47.7001 141.644 47.8366 153.221C48.8174 147.241 48.1431 146.739 52.1615 137.584C54.5504 132.141 64.3446 125.429 65.5129 129.169C66.659 132.839 64.9056 139.976 61.2083 144.926C58.2256 148.919 51.6076 148.915 50.0759 151.393C49.7186 151.971 48.5372 154.187 47.8623 155.461C48.0221 169.595 48.0937 182.071 48.0145 186.324L47.3724 186.367C47.4032 185.269 47.3256 178.079 47.1996 168.564C45.5928 163.502 34.774 160.546 31.4319 155.281C27.9357 149.772 25.4222 143.343 26.9221 139.037Z" fill="#E6E6E6"/>
<path d="M37.0948 192.729H57.8596C58.9941 192.729 59.9719 191.929 60.1972 190.817L61.6714 183.55H33.2831L34.7573 190.817C34.9826 191.93 35.9603 192.729 37.0948 192.729Z" fill="#F0F0F0"/>
<path d="M32.6894 186.368H62.2651C62.9737 186.368 63.5695 185.835 63.6486 185.131L64.2534 179.758C64.3461 178.933 63.7005 178.21 62.8699 178.21H32.0846C31.254 178.21 30.6079 178.933 30.7011 179.758L31.3059 185.131C31.385 185.835 31.9808 186.368 32.6894 186.368Z" fill="#F0F0F0"/>
<path d="M89.6314 160.08H71.8871V192.729H89.6314V160.08Z" fill="#E0E0E0"/>
<path d="M134.86 192.729H75.4412L69.1997 148.429H128.618L134.86 192.729Z" fill="#E6E6E6"/>
<path d="M143.528 192.729H77.8025L71.5609 148.429H137.287L143.528 192.729Z" fill="#F0F0F0"/>
<path d="M84.236 185.804L78.9783 155.353H130.853L136.111 185.804H84.236Z" fill="white"/>
<path d="M106.526 185.804L88.8931 155.353H94.425L112.057 185.804H106.526Z" fill="#FAFAFA"/>
<path d="M114.402 185.804L96.7695 155.353H106.202L123.835 185.804H114.402Z" fill="#FAFAFA"/>
<path d="M126 215.491C179.969 215.491 223.72 212.936 223.72 209.784C223.72 206.632 179.969 204.077 126 204.077C72.0307 204.077 28.2799 206.632 28.2799 209.784C28.2799 212.936 72.0307 215.491 126 215.491Z" fill="#F5F5F5"/>
<path d="M38.942 111.651C38.8312 111.651 38.7379 111.566 38.7283 111.454L37.6085 97.9963C37.5984 97.8783 37.6861 97.775 37.8045 97.7649C37.9154 97.7564 38.0258 97.8426 38.0358 97.961L39.1557 111.419C39.1658 111.537 39.0781 111.64 38.9597 111.65C38.9536 111.651 38.9481 111.651 38.942 111.651Z" fill="#407BFF"/>
<path d="M39.6068 119.645C39.4959 119.645 39.4027 119.56 39.3931 119.448L39.0539 115.374C39.0438 115.256 39.1315 115.152 39.2499 115.142C39.3633 115.128 39.4717 115.219 39.4813 115.338L39.8205 119.412C39.8306 119.53 39.7429 119.633 39.6244 119.644C39.6189 119.644 39.6128 119.645 39.6068 119.645Z" fill="#407BFF"/>
<path d="M152.992 157.939H48.9288C46.2737 157.939 43.9205 155.767 43.6993 153.111L37.8387 82.6656C37.618 80.0105 39.6093 77.8378 42.2649 77.8378H146.328C148.983 77.8378 151.336 80.01 151.557 82.6656L157.418 153.111C157.639 155.766 155.647 157.939 152.992 157.939Z" fill="white"/>
<path d="M152.992 158.14H48.9287C46.1648 158.14 43.7289 155.892 43.4991 153.128L37.6386 82.6827C37.5262 81.3385 37.9501 80.071 38.8306 79.1139C39.707 78.1613 40.9267 77.6367 42.2648 77.6367H146.328C149.092 77.6367 151.527 79.8855 151.757 82.6489L157.618 153.094C157.731 154.438 157.307 155.705 156.426 156.662C155.549 157.615 154.33 158.14 152.992 158.14ZM42.2648 78.0394C41.0406 78.0394 39.9263 78.5176 39.1269 79.3865C38.323 80.2595 37.937 81.4182 38.0393 82.6494L43.8998 153.095C44.113 155.655 46.3689 157.737 48.9292 157.737H152.992C154.217 157.737 155.331 157.259 156.131 156.39C156.934 155.517 157.32 154.359 157.218 153.128L151.357 82.6827C151.144 80.1224 148.889 78.0394 146.329 78.0394H42.2648Z" fill="#407BFF"/>
<path d="M146.328 77.8383H42.2649C39.6098 77.8383 37.618 80.0105 37.8387 82.6661H151.557C151.336 80.0105 148.983 77.8383 146.328 77.8383Z" fill="#407BFF"/>
<path d="M44.7007 80.2519C44.7486 80.827 44.3212 81.2932 43.7461 81.2932C43.1711 81.2932 42.666 80.827 42.6182 80.2519C42.5703 79.6768 42.9977 79.2106 43.5727 79.2106C44.1478 79.2106 44.6528 79.6768 44.7007 80.2519Z" fill="white"/>
<path d="M48.9343 80.2519C48.9822 80.827 48.5548 81.2932 47.9797 81.2932C47.4047 81.2932 46.9002 80.827 46.8523 80.2519C46.8044 79.6768 47.2318 79.2106 47.8069 79.2106C48.3819 79.2106 48.8864 79.6768 48.9343 80.2519Z" fill="white"/>
<path d="M53.1678 80.2519C53.2157 80.827 52.7883 81.2932 52.2133 81.2932C51.6382 81.2932 51.1332 80.827 51.0858 80.2519C51.0379 79.6768 51.4653 79.2106 52.0404 79.2106C52.6155 79.2106 53.12 79.6768 53.1678 80.2519Z" fill="white"/>
<path d="M143.961 148.707H56.4237C54.313 148.707 52.4426 146.98 52.2667 144.87L48.1788 95.7353C48.0034 93.6245 49.5865 91.8978 51.6972 91.8978H139.234C141.345 91.8978 143.215 93.6245 143.391 95.7353L147.479 144.87C147.655 146.98 146.072 148.707 143.961 148.707Z" fill="#F0F0F0"/>
<path opacity="0.1" d="M116.889 100.501L89.7699 133.152C86.0499 137.631 88.4066 144.458 94.0972 145.689L138.083 155.202C144.157 156.516 149.233 150.51 146.924 144.74L130.058 102.576C127.874 97.1163 120.646 95.9777 116.889 100.501Z" fill="#263238"/>
<path opacity="0.1" d="M56.5291 105.079L47.0836 130.514C45.8231 133.908 48.5523 137.45 52.1554 137.097L79.7388 134.392C83.6065 134.012 85.5146 129.497 83.0909 126.459L64.9535 103.728C62.5756 100.749 57.8561 101.506 56.5291 105.079Z" fill="#263238"/>
<path d="M126.244 92.2804L100.892 129.091C97.4388 134.105 100.498 140.998 106.533 141.801L153.135 148.003C159.604 148.864 164.413 142.157 161.523 136.306L140.272 93.2934C137.515 87.7132 129.775 87.1537 126.244 92.2804Z" fill="#407BFF"/>
<path d="M107.639 138.501C105.944 138.276 104.471 137.207 103.699 135.643C102.926 134.079 103.015 132.346 103.936 131.007L129.352 94.1034C130.274 92.7652 131.836 92.1005 133.531 92.3257C135.226 92.5515 136.699 93.62 137.472 95.1839L158.776 138.305C159.549 139.87 159.46 141.602 158.537 142.941C157.615 144.28 156.053 144.944 154.359 144.719L107.639 138.501Z" fill="white"/>
<path d="M131.367 105.371L134.335 105.766C136.243 106.02 137.712 107.756 137.615 109.644L137.416 113.515C137.409 113.658 137.392 113.798 137.368 113.936L135.256 125.604C134.952 127.285 133.415 128.373 131.673 128.141C129.926 127.909 128.52 126.424 128.396 124.681L127.54 112.623C127.53 112.484 127.529 112.344 127.536 112.206L127.735 108.329C127.832 106.441 129.458 105.117 131.367 105.371ZM131.13 131.357L131.939 131.465C133.647 131.692 134.96 133.245 134.873 134.933C134.787 136.622 133.332 137.806 131.625 137.579L130.815 137.472C129.108 137.244 127.794 135.691 127.881 134.003C127.968 132.315 129.423 131.13 131.13 131.357Z" fill="#407BFF"/>
<path d="M66.2786 97.9071L59.3178 124.304C58.396 127.799 61.4467 131.055 64.9944 130.362L91.9947 125.094C95.7888 124.353 97.2715 119.717 94.6114 116.912L74.5724 95.7842C71.9304 92.9991 67.2573 94.1951 66.2786 97.9071Z" fill="#407BFF"/>
<path d="M64.9429 128.224C63.9611 128.416 62.9395 128.071 62.2113 127.303C61.4825 126.535 61.1982 125.503 61.4517 124.543L68.4301 98.0799C68.6831 97.1203 69.4205 96.4329 70.4028 96.2413C71.3846 96.0498 72.4062 96.394 73.1345 97.1621L93.2244 118.344C93.9532 119.112 94.2374 120.144 93.9839 121.104C93.7309 122.064 92.9936 122.751 92.0118 122.943L64.9429 128.224Z" fill="white"/>
<path d="M71.7117 104.293L73.4313 103.957C74.5371 103.741 75.6847 104.478 75.9937 105.601L76.6282 107.906C76.6514 107.991 76.6695 108.076 76.6821 108.161L77.7562 115.397C77.9109 116.44 77.2693 117.37 76.2598 117.567C75.2478 117.764 74.1838 117.163 73.7801 116.166L70.9869 109.269C70.9547 109.189 70.927 109.108 70.9043 109.025L70.2693 106.717C69.9603 105.595 70.6059 104.508 71.7117 104.293ZM76.5778 119.555L77.047 119.463C78.0364 119.27 79.0625 119.929 79.3392 120.934C79.6159 121.939 79.0383 122.911 78.049 123.104L77.5803 123.195C76.5909 123.388 75.5648 122.73 75.2881 121.725C75.0109 120.719 75.5885 119.748 76.5778 119.555Z" fill="#407BFF"/>
<path d="M195.735 103.842L191.823 105.112L194.97 108.835C194.97 108.835 196.452 107.573 197.26 106.158C197.598 105.567 197.403 104.814 196.815 104.472L195.735 103.842Z" fill="#7F3E3B"/>
<path d="M190.023 108.167L192.369 111.017L194.97 108.835L191.823 105.112L190.023 108.167Z" fill="#7F3E3B"/>
<path d="M196.996 73.4217C197.953 76.0415 198.829 78.6618 199.659 81.3194C200.479 83.983 201.26 86.6421 201.926 89.4368L202.164 90.5083L202.275 91.0682L202.33 91.348L202.343 91.4185L202.359 91.5254L202.389 91.7396C202.529 92.8806 202.41 93.7777 202.252 94.6093C201.923 96.2559 201.388 97.6525 200.8 99.0083C199.602 101.701 198.165 104.12 196.484 106.466L193.87 105.02C194.796 102.509 195.71 99.9225 196.396 97.4312C196.725 96.1904 197.009 94.9385 197.093 93.8554C197.131 93.3257 197.104 92.8302 197.032 92.6065L196.815 91.8182L196.534 90.8878C195.743 88.3638 194.841 85.7692 193.949 83.1912C193.061 80.6087 192.166 78.0066 191.306 75.4191L196.996 73.4217Z" fill="#7F3E3B"/>
<path d="M175.229 57.8305C175.296 58.1445 175.185 58.4408 174.982 58.4922C174.778 58.5436 174.559 58.3304 174.493 58.0165C174.426 57.7025 174.537 57.4061 174.741 57.3547C174.945 57.3033 175.163 57.516 175.229 57.8305Z" fill="#263238"/>
<path d="M175.214 58.4332C175.214 58.4332 174.89 60.424 174.297 61.495C174.957 61.8745 175.843 61.4013 175.843 61.4013L175.214 58.4332Z" fill="#630F0F"/>
<path d="M174.398 55.9233C174.338 55.9233 174.28 55.8951 174.243 55.8432C174.183 55.758 174.204 55.6406 174.289 55.5806C174.32 55.5594 175.047 55.062 175.996 55.4526C176.092 55.4924 176.138 55.6023 176.099 55.6985C176.059 55.7948 175.949 55.8412 175.853 55.8009C175.092 55.4874 174.512 55.8855 174.506 55.8896C174.473 55.9122 174.435 55.9233 174.398 55.9233Z" fill="#263238"/>
<path d="M186.032 58.8289C186.384 62.4875 185.865 66.0301 186.684 69.2108C186.684 69.2108 185.774 72.1627 180.367 72.1627C174.421 72.1627 177.639 69.2108 177.639 69.2108C180.915 68.4357 180.924 66.0281 180.446 63.7666L186.032 58.8289Z" fill="#7F3E3B"/>
<path d="M187.836 70.2243C188.298 69.2899 188.605 67.9669 187.647 67.6318C186.593 67.2633 180.966 67.1409 178.924 67.8324C176.882 68.5243 177.38 70.4194 177.38 70.4194L187.836 70.2243Z" fill="#263238"/>
<path d="M199.987 202.957C200.378 202.865 200.78 202.684 201.058 202.543C201.094 202.525 201.117 202.486 201.114 202.444C201.111 202.403 201.083 202.367 201.044 202.354C200.867 202.294 199.304 201.778 198.893 202.13C198.83 202.184 198.76 202.284 198.789 202.454C198.827 202.681 198.939 202.843 199.121 202.934C199.351 203.05 199.665 203.033 199.987 202.957ZM200.734 202.471C200.05 202.785 199.491 202.89 199.213 202.75C199.092 202.689 199.019 202.58 198.992 202.419C198.978 202.34 199.004 202.307 199.027 202.286C199.241 202.104 200.104 202.282 200.734 202.471Z" fill="#407BFF"/>
<path d="M201.035 202.552C201.054 202.548 201.072 202.537 201.086 202.523C201.112 202.496 201.121 202.456 201.11 202.42C201.093 202.37 200.703 201.173 200.117 200.888C199.965 200.814 199.811 200.804 199.66 200.86C199.428 200.946 199.4 201.109 199.404 201.198C199.426 201.691 200.491 202.417 200.985 202.552C201.001 202.556 201.018 202.556 201.035 202.552ZM199.775 201.039C199.858 201.019 199.94 201.03 200.026 201.072C200.402 201.255 200.706 201.935 200.839 202.279C200.326 202.052 199.622 201.48 199.609 201.188C199.608 201.162 199.605 201.1 199.731 201.053C199.746 201.047 199.761 201.043 199.775 201.039Z" fill="#407BFF"/>
<path d="M172.456 206.033C172.858 206.033 173.292 205.95 173.594 205.876C173.634 205.867 173.665 205.834 173.671 205.793C173.678 205.752 173.659 205.711 173.625 205.689C173.466 205.59 172.064 204.729 171.583 204.976C171.509 205.014 171.417 205.096 171.407 205.267C171.392 205.497 171.464 205.68 171.62 205.811C171.816 205.976 172.126 206.033 172.456 206.033ZM173.295 205.732C172.558 205.88 171.99 205.853 171.752 205.653C171.648 205.565 171.602 205.444 171.613 205.28C171.618 205.2 171.65 205.173 171.678 205.159C171.927 205.031 172.725 205.402 173.295 205.732Z" fill="#407BFF"/>
<path d="M173.569 205.879C173.589 205.879 173.609 205.874 173.625 205.863C173.657 205.842 173.675 205.806 173.672 205.769C173.668 205.715 173.564 204.461 173.059 204.048C172.927 203.941 172.78 203.896 172.62 203.916C172.375 203.946 172.309 204.098 172.293 204.186C172.201 204.67 173.071 205.622 173.52 205.866C173.536 205.875 173.553 205.879 173.569 205.879ZM172.692 204.117C172.777 204.117 172.854 204.147 172.928 204.208C173.252 204.472 173.391 205.203 173.441 205.57C172.994 205.23 172.441 204.511 172.494 204.224C172.499 204.198 172.511 204.137 172.645 204.121C172.661 204.118 172.677 204.117 172.692 204.117Z" fill="#407BFF"/>
<path d="M178.248 205.722H174.27L174.23 196.51H178.208L178.248 205.722Z" fill="#7F3E3B"/>
<path d="M205.966 202.314L202.136 203.016L199.389 193.95L203.219 193.248L205.966 202.314Z" fill="#7F3E3B"/>
<path d="M201.407 201.997L205.757 200.968C205.915 200.931 206.074 201.009 206.139 201.157L207.584 204.449C207.734 204.79 207.52 205.197 207.154 205.277C205.63 205.61 204.875 205.695 202.962 206.147C201.785 206.425 199.385 207.121 197.761 207.506C196.171 207.882 195.605 206.319 196.242 206.015C199.096 204.651 200.041 203.477 200.826 202.385C200.967 202.188 201.176 202.051 201.407 201.997Z" fill="#263238"/>
<path d="M174.314 205.262H178.659C178.822 205.262 178.958 205.374 178.987 205.533L179.636 209.069C179.703 209.436 179.412 209.783 179.036 209.777C177.47 209.75 175.21 209.658 173.239 209.658C170.936 209.658 170.116 209.784 167.415 209.784C165.782 209.784 165.392 208.133 166.082 207.983C169.22 207.302 170.59 207.229 173.344 205.571C173.643 205.391 173.971 205.262 174.314 205.262Z" fill="#263238"/>
<path d="M195.552 70.238C199.264 72.8507 200.383 79.5846 200.383 79.5846L191.968 83.851C191.968 83.851 189.831 79.7091 188.895 75.4997C188.009 71.5161 192.913 68.3807 195.552 70.238Z" fill="#407BFF"/>
<path opacity="0.2" d="M191.344 74.5325L194.659 82.4766L191.97 83.852C191.97 83.852 190.797 81.5679 189.793 78.6482L191.344 74.5325Z" fill="black"/>
<path d="M170.801 87.7126C170.829 92.1529 171.098 97.6762 171.76 104.532H193.041C193.302 101.406 191.996 86.6714 195.164 71.9193C195.399 70.8221 194.665 69.7536 193.557 69.5812C192.2 69.3706 190.346 69.1286 188.531 69.0409C185.817 68.9109 181.884 68.8242 179.487 69.0409C178.184 69.1594 176.908 69.3675 175.859 69.5717C174.043 69.925 172.599 71.2812 172.119 73.0674C171.66 74.775 171.191 77.3998 170.954 81.3602C170.845 83.1857 170.786 85.2864 170.801 87.7126Z" fill="#407BFF"/>
<path opacity="0.2" d="M177.516 79.3598C176.11 80.393 173.418 80.8668 170.969 81.0785C171.009 80.4283 171.06 79.8134 171.115 79.2338C171.775 78.8861 172.41 78.5686 173.01 78.2762L177.516 79.3598Z" fill="black"/>
<g opacity="0.2">
<path d="M174.23 196.512L174.25 201.632H178.23L178.21 196.512H174.23Z" fill="black"/>
<path d="M203.22 193.251L199.389 193.953L200.807 198.625L204.639 197.923L203.22 193.251Z" fill="black"/>
</g>
<path d="M185.465 54.5439C186.048 58.461 186.585 60.7169 185.075 63.1845C182.804 66.8959 177.713 66.3204 175.986 62.6996C174.431 59.4408 173.739 53.5823 177.154 51.1021C180.517 48.6587 184.882 50.6268 185.465 54.5439Z" fill="#7F3E3B"/>
<path d="M177.326 57.4036C175.852 56.7559 175.992 54.432 176.44 53.4522C174.732 54.0404 172.263 54.376 171.818 52.6403C171.373 50.9045 172.885 50.3445 171.96 48.8603C171.036 47.3765 173.976 45.7521 175.348 47.8245C176.72 49.897 180.104 48.9858 182.292 46.9844C183.884 45.5283 186.212 47.4042 185.288 49.3083C185.288 49.3083 190.076 49.0004 189.124 52.2482C188.172 55.4959 186.828 55.6134 187.136 57.9232C187.344 59.4871 187.528 62.6638 185.652 63.1119C183.386 63.6532 177.728 61.6452 177.326 57.4036Z" fill="#263238"/>
<path opacity="0.2" d="M177.299 61.6442C176.866 61.9567 176.417 62.2893 175.958 62.6421C175.969 62.6623 175.974 62.6774 175.984 62.6976C176.457 63.6905 177.188 64.4565 178.045 64.9706C178.33 64.6939 178.489 63.763 179.026 63.7771C180.623 63.819 183.714 63.1517 184.226 61.3489L177.299 61.6442Z" fill="black"/>
<path d="M178.54 57.3481C178.651 58.3526 178.465 59.2936 178.161 59.9064C177.705 60.8282 176.991 60.2406 176.711 59.1066C176.46 58.0855 176.394 56.3754 177.048 55.8729C177.692 55.377 178.412 56.1995 178.54 57.3481Z" fill="#7F3E3B"/>
<path d="M179.309 104.532C179.309 104.532 182.65 134.933 184.688 146.323C186.921 158.795 198.483 197.945 198.483 197.945L205.609 196.427C205.609 196.427 197.651 159.802 196.579 147.454C195.416 134.051 193.039 104.532 193.039 104.532L179.309 104.532Z" fill="#407BFF"/>
<path opacity="0.3" d="M179.309 104.532C179.309 104.532 182.65 134.933 184.688 146.323C186.921 158.795 198.483 197.945 198.483 197.945L205.609 196.427C205.609 196.427 197.651 159.802 196.579 147.454C195.473 134.713 195.471 134.739 193.039 104.532L179.309 104.532Z" fill="black"/>
<path d="M196.887 195.54C196.856 195.546 198.099 198.142 198.099 198.142L206.117 196.435L205.544 194.004L196.887 195.54Z" fill="#263238"/>
<path opacity="0.2" d="M181.743 115.364C186.924 116.387 185.62 135.854 184.605 145.867C183.373 138.789 181.695 125.17 180.562 115.504C180.916 115.331 181.308 115.277 181.743 115.364Z" fill="black"/>
<path d="M171.761 104.532C171.761 104.532 170.065 134.275 170.029 146.406C169.992 159.025 172.804 200.341 172.804 200.341H179.543C179.543 200.341 181.357 159.762 182.136 147.37C182.984 133.859 185.748 104.532 185.748 104.532H171.761Z" fill="#407BFF"/>
<path opacity="0.3" d="M171.761 104.532C171.761 104.532 170.065 134.275 170.029 146.406C169.992 159.025 172.804 200.341 172.804 200.341H179.543C179.543 200.341 181.357 159.762 182.136 147.37C182.984 133.859 185.748 104.532 185.748 104.532H171.761Z" fill="black"/>
<path d="M171.611 197.657C171.579 197.657 171.883 200.454 171.883 200.454H180.08L180.398 197.958L171.611 197.657Z" fill="#263238"/>
<path d="M180.19 76.4764C179.385 76.5551 178.702 76.5959 177.964 76.6176C177.24 76.6413 176.517 76.6508 175.793 76.6483C174.346 76.6322 172.893 76.5591 171.433 76.3953C169.972 76.2386 168.503 76.0022 167.026 75.6388C165.547 75.2835 164.059 74.7886 162.579 74.0608L162.411 73.9781C161.109 73.337 160.572 71.761 161.213 70.4582C161.282 70.3166 161.373 70.1724 161.463 70.0494C162.151 69.1241 162.819 68.479 163.502 67.8686C164.182 67.2664 164.863 66.7246 165.549 66.2095C166.918 65.1758 168.32 64.263 169.727 63.376C171.141 62.501 172.569 61.6704 174.016 60.8802C175.474 60.102 176.917 59.3374 178.43 58.6348C179.182 58.2856 180.075 58.6122 180.424 59.3641C180.726 60.0143 180.523 60.7698 179.976 61.1881L179.959 61.2007C178.691 62.1714 177.387 63.1366 176.123 64.1244C174.85 65.1032 173.583 66.0825 172.346 67.0809C171.104 68.0692 169.895 69.0883 168.754 70.1119C168.183 70.624 167.637 71.1461 167.147 71.6668C166.663 72.1814 166.203 72.7151 165.958 73.1198L164.841 69.1085C165.867 69.5076 167.026 69.7939 168.23 70.0116C169.437 70.2208 170.692 70.3574 171.965 70.4461C173.238 70.5267 174.531 70.5691 175.827 70.5696C176.475 70.5736 177.125 70.5666 177.772 70.5474C178.406 70.5237 179.094 70.501 179.658 70.4698L179.727 70.4657C181.389 70.3725 182.812 71.6441 182.906 73.3063C182.998 74.9256 181.788 76.3182 180.19 76.4764Z" fill="#7F3E3B"/>
<path d="M183.011 57.8199L180.48 58.3788C180.48 58.3788 177.109 57.96 176.338 60.5012L178.335 62.2062L181.418 62.6936C181.907 62.7707 182.408 62.6895 182.848 62.4617L183.635 62.0535C183.997 61.866 184.238 61.5071 184.276 61.1014L184.463 59.101C184.538 58.2926 183.804 57.645 183.011 57.8199Z" fill="#7F3E3B"/>
<path d="M178.093 79.4218C173.853 80.5977 169.021 79.128 169.021 79.128L170.799 69.6362C170.799 69.6362 175.01 69.2673 177.639 69.2113C184.408 69.0682 185.735 77.302 178.093 79.4218Z" fill="#407BFF"/>
</svg>
