<svg width="11" height="12" viewBox="0 0 11 12" fill="none" xmlns="http://www.w3.org/2000/svg">
<path d="M1.74002 9.56938C1.41741 9.56938 1.11595 9.45827 0.89911 9.252C0.624095 8.99286 0.491876 8.60149 0.539475 8.17839L0.735159 6.46483C0.77218 6.14222 0.967864 5.71383 1.19528 5.48112L5.53735 0.885221C6.62155 -0.262439 7.75334 -0.294171 8.901 0.790024C10.0487 1.87422 10.0804 3.00601 8.9962 4.15367L4.65413 8.74957C4.432 8.98757 4.01948 9.20969 3.69686 9.26263L1.99388 9.55346C1.90397 9.55875 1.82464 9.56938 1.74002 9.56938ZM7.23504 0.784735C6.82781 0.784735 6.47346 1.0386 6.11383 1.41939L1.77175 6.02063C1.66598 6.13169 1.54434 6.39613 1.52318 6.5495L1.3275 8.26301C1.30634 8.43754 1.34865 8.58033 1.44385 8.67024C1.53905 8.76015 1.68185 8.79188 1.85637 8.76544L3.55935 8.47461C3.71273 8.44817 3.96659 8.31061 4.07236 8.19954L8.41443 3.60364C9.07024 2.90553 9.30823 2.2603 8.35097 1.36121C7.92787 0.953975 7.56294 0.784735 7.23504 0.784735Z" fill="white"/>
<path d="M7.98107 5.03676C7.9705 5.03676 7.95463 5.03676 7.94405 5.03676C6.29396 4.87281 4.96648 3.6194 4.71262 1.97989C4.68089 1.76305 4.82898 1.56208 5.04581 1.52505C5.26265 1.49332 5.46363 1.64141 5.50065 1.85825C5.70162 3.13812 6.73822 4.12183 8.02867 4.24876C8.24551 4.26992 8.40417 4.4656 8.38302 4.68241C8.35657 4.88339 8.18205 5.03676 7.98107 5.03676Z" fill="white"/>
<path d="M9.91644 11.2776H0.396687C0.179848 11.2776 3.05176e-05 11.0978 3.05176e-05 10.8809C3.05176e-05 10.6641 0.179848 10.4843 0.396687 10.4843H9.91644C10.1333 10.4843 10.3131 10.6641 10.3131 10.8809C10.3131 11.0978 10.1333 11.2776 9.91644 11.2776Z" fill="white"/>
</svg>
