<svg width="41" height="40" viewBox="0 0 41 40" fill="none" xmlns="http://www.w3.org/2000/svg">
<path d="M20.588 0.602051C9.77967 0.602051 0.972168 9.40955 0.972168 20.2179C0.972168 31.0262 9.77967 39.8337 20.588 39.8337C31.3963 39.8337 40.2038 31.0262 40.2038 20.2179C40.2038 9.40955 31.3963 0.602051 20.588 0.602051ZM29.9643 15.7062L18.8422 26.8284C18.5675 27.103 18.1948 27.2599 17.8025 27.2599C17.4102 27.2599 17.0375 27.103 16.7629 26.8284L11.2116 21.2771C10.6428 20.7083 10.6428 19.7667 11.2116 19.1978C11.7805 18.629 12.722 18.629 13.2909 19.1978L17.8025 23.7095L27.8851 13.6269C28.4539 13.0581 29.3955 13.0581 29.9643 13.6269C30.5332 14.1958 30.5332 15.1177 29.9643 15.7062Z" fill="#00C667"/>
</svg>
