<svg width="15" height="17" viewBox="0 0 15 17" fill="none" xmlns="http://www.w3.org/2000/svg">
<path d="M2.51148 13.812C2.04583 13.812 1.61072 13.6517 1.29774 13.3539C0.900795 12.9799 0.709956 12.415 0.778658 11.8043L1.0611 9.33106C1.11454 8.86541 1.39698 8.24709 1.72522 7.91121L7.99238 1.27769C9.55726 -0.378793 11.1908 -0.424594 12.8473 1.14029C14.5038 2.70517 14.5496 4.33875 12.9847 5.99523L6.71758 12.6288C6.39697 12.9723 5.80154 13.2929 5.33589 13.3693L2.87789 13.7891C2.74812 13.7967 2.63361 13.812 2.51148 13.812ZM10.4428 1.13265C9.85497 1.13265 9.34352 1.49906 8.82444 2.04868L2.55728 8.68991C2.40461 8.85022 2.22903 9.2319 2.1985 9.45327L1.91606 11.9265C1.88552 12.1784 1.94659 12.3845 2.084 12.5143C2.2214 12.644 2.42751 12.6898 2.67941 12.6517L5.13742 12.2319C5.35879 12.1937 5.7252 11.9952 5.87788 11.8349L12.145 5.20134C13.0916 4.19371 13.4351 3.26242 12.0534 1.96471C11.4427 1.37693 10.916 1.13265 10.4428 1.13265Z" fill="#0966BB"/>
<path d="M11.5195 7.26984C11.5042 7.26984 11.4813 7.26984 11.4661 7.26984C9.08439 7.0332 7.16836 5.22409 6.80195 2.85769C6.75615 2.54471 6.96989 2.25463 7.28287 2.2012C7.59584 2.1554 7.88592 2.36914 7.93935 2.68211C8.22943 4.52943 9.72561 5.94928 11.5882 6.13248C11.9012 6.16302 12.1302 6.44546 12.0996 6.7584C12.0615 7.04847 11.8096 7.26984 11.5195 7.26984Z" fill="#0966BB"/>
<path d="M14.3129 16.2776H0.572517C0.259541 16.2776 0 16.0181 0 15.7051C0 15.3921 0.259541 15.1326 0.572517 15.1326H14.3129C14.6259 15.1326 14.8854 15.3921 14.8854 15.7051C14.8854 16.0181 14.6259 16.2776 14.3129 16.2776Z" fill="#0966BB"/>
</svg>
