<svg width="20" height="4" viewBox="0 0 20 4" fill="none" xmlns="http://www.w3.org/2000/svg">
<path fill-rule="evenodd" clip-rule="evenodd" d="M4.47963 1.76225C4.47467 2.7256 3.6897 3.50253 2.72635 3.49757C1.763 3.49262 0.98607 2.70765 0.991026 1.7443C0.995982 0.78095 1.78095 0.00401768 2.7443 0.00897373C3.70765 0.0139298 4.48458 0.798897 4.47963 1.76225ZM12.2321 1.80213C12.2271 2.76548 11.4421 3.54241 10.4788 3.53746C9.51545 3.5325 8.73851 2.74753 8.74347 1.78418C8.74842 0.820833 9.53339 0.0439009 10.4967 0.048857C11.4601 0.053813 12.237 0.838781 12.2321 1.80213ZM18.2312 3.57734C19.1946 3.58229 19.9796 2.80536 19.9845 1.84201C19.9895 0.878664 19.2125 0.0936961 18.2492 0.0887402C17.2859 0.0837843 16.5009 0.860716 16.4959 1.82407C16.491 2.78742 17.2679 3.57238 18.2312 3.57734Z" fill="#656565"/>
</svg>
