<svg width="17" height="17" viewBox="0 0 17 17" fill="none" xmlns="http://www.w3.org/2000/svg">
<path d="M8.22536 15.8329C4.21138 15.8329 0.943359 12.4696 0.943359 8.33876C0.943359 4.20787 4.21138 0.844666 8.22536 0.844666C12.2393 0.844666 15.5074 4.20787 15.5074 8.33876C15.5074 12.4696 12.2393 15.8329 8.22536 15.8329ZM8.22536 1.94136C4.79394 1.94136 2.00902 4.81471 2.00902 8.33876C2.00902 11.8628 4.79394 14.7362 8.22536 14.7362C11.6568 14.7362 14.4417 11.8628 14.4417 8.33876C14.4417 4.81471 11.6568 1.94136 8.22536 1.94136Z" fill="#292D32" fill-opacity="0.44"/>
<path d="M15.6852 16.5639C15.5502 16.5639 15.4152 16.5127 15.3087 16.4031L13.8878 14.9408C13.6818 14.7288 13.6818 14.3778 13.8878 14.1658C14.0938 13.9538 14.4348 13.9538 14.6409 14.1658L16.0617 15.6281C16.2678 15.8401 16.2678 16.191 16.0617 16.4031C15.9552 16.5127 15.8202 16.5639 15.6852 16.5639Z" fill="#292D32" fill-opacity="0.44"/>
</svg>
