<svg width="41" height="41" viewBox="0 0 41 41" fill="none" xmlns="http://www.w3.org/2000/svg">
<path d="M20.0512 40.1023C8.99039 40.1023 0 31.112 0 20.0512C0 8.99039 8.99039 0 20.0512 0C31.112 0 40.1023 8.99039 40.1023 20.0512C40.1023 31.112 31.112 40.1023 20.0512 40.1023ZM20.0512 2.79784C10.5385 2.79784 2.79784 10.5385 2.79784 20.0512C2.79784 29.5638 10.5385 37.3045 20.0512 37.3045C29.5638 37.3045 37.3045 29.5638 37.3045 20.0512C37.3045 10.5385 29.5638 2.79784 20.0512 2.79784Z" fill="#CA0E0E"/>
<path d="M14.7714 26.7289C14.417 26.7289 14.0626 26.5983 13.7829 26.3185C13.2419 25.7776 13.2419 24.8823 13.7829 24.3414L24.3401 13.7842C24.881 13.2433 25.7763 13.2433 26.3172 13.7842C26.8581 14.3251 26.8581 15.2205 26.3172 15.7614L15.76 26.3185C15.4988 26.5983 15.1258 26.7289 14.7714 26.7289Z" fill="#CA0E0E"/>
<path d="M25.3286 26.7289C24.9742 26.7289 24.6198 26.5983 24.3401 26.3185L13.7829 15.7614C13.2419 15.2205 13.2419 14.3251 13.7829 13.7842C14.3237 13.2433 15.2191 13.2433 15.76 13.7842L26.3172 24.3414C26.8581 24.8823 26.8581 25.7776 26.3172 26.3185C26.0374 26.5983 25.683 26.7289 25.3286 26.7289Z" fill="#CA0E0E"/>
</svg>
