<svg width="10" height="7" viewBox="0 0 10 7" fill="none" xmlns="http://www.w3.org/2000/svg">
<path fill-rule="evenodd" clip-rule="evenodd" d="M3.19128 0.779986C3.73724 0.733768 4.32241 0.703171 4.9138 0.703171C5.50519 0.703171 6.09036 0.733768 6.6363 0.779986C7.29376 0.835638 7.71923 0.873236 8.04459 0.950026C8.34086 1.01993 8.50602 1.11232 8.64821 1.25784C8.66376 1.27378 8.68574 1.29768 8.70028 1.31454C8.82578 1.45973 8.9082 1.64058 8.95512 1.98321C9.00536 2.35017 9.00675 2.82926 9.00675 3.55245C9.00675 4.26735 9.00536 4.73957 8.95518 5.10176C8.90846 5.43878 8.82647 5.61855 8.69978 5.76502C8.68536 5.78164 8.663 5.80601 8.64758 5.82169C8.50357 5.96891 8.33966 6.06028 8.05076 6.12879C7.73176 6.20441 7.3156 6.24075 6.66923 6.29458C6.12247 6.34017 5.52816 6.37033 4.9138 6.37033C4.29944 6.37033 3.70513 6.34017 3.15836 6.29458C2.512 6.24075 2.09581 6.20441 1.77681 6.12879C1.48791 6.06028 1.32403 5.96891 1.18 5.82169C1.16461 5.80601 1.14221 5.78164 1.12781 5.76502C1.00111 5.61855 0.919153 5.43878 0.872437 5.10176C0.822239 4.73957 0.820847 4.26735 0.820847 3.55245C0.820847 2.82926 0.822207 2.35017 0.872481 1.98321C0.919418 1.64058 1.00184 1.45973 1.12729 1.31454C1.14186 1.29768 1.16382 1.27378 1.1794 1.25784C1.32157 1.11232 1.48675 1.01993 1.78298 0.950026C2.10838 0.873236 2.53384 0.835638 3.19128 0.779986ZM0.191162 3.55245C0.191162 2.14072 0.191162 1.43485 0.650823 0.902863C0.673788 0.876278 0.704443 0.842923 0.72899 0.817799C1.22031 0.314901 1.85959 0.26078 3.13816 0.152543C3.69802 0.105147 4.30127 0.0734863 4.9138 0.0734863C5.52633 0.0734863 6.12957 0.105147 6.68945 0.152543C7.96802 0.26078 8.60728 0.314901 9.09862 0.817799C9.12318 0.842923 9.15378 0.876278 9.17676 0.902863C9.63643 1.43485 9.63643 2.14072 9.63643 3.55245C9.63643 4.94732 9.63643 5.64475 9.17601 6.17696C9.15321 6.20334 9.12211 6.23716 9.09768 6.26209C8.60558 6.76508 7.97753 6.81741 6.72156 6.92213C6.16039 6.96885 5.54841 7.00002 4.9138 7.00002C4.27919 7.00002 3.6672 6.96885 3.10607 6.92213C1.85004 6.81741 1.22203 6.76508 0.729894 6.26209C0.705516 6.23716 0.674409 6.20334 0.651601 6.17696C0.191162 5.64475 0.191162 4.94732 0.191162 3.55245ZM3.49701 2.20348C3.49701 2.08989 3.61364 2.0137 3.71766 2.05932L6.75752 3.39259C6.88307 3.44767 6.88307 3.62583 6.75752 3.68092L3.71766 5.01419C3.61364 5.05981 3.49701 4.98361 3.49701 4.87002V2.20348Z" fill="white"/>
</svg>
