<svg width="10" height="9" viewBox="0 0 10 9" fill="none" xmlns="http://www.w3.org/2000/svg">
<path d="M6.48128 4.25424C6.48128 5.05796 5.83182 5.70742 5.02811 5.70742C4.2244 5.70742 3.57495 5.05796 3.57495 4.25424C3.57495 3.45053 4.2244 2.80109 5.02811 2.80109C5.83182 2.80109 6.48128 3.45053 6.48128 4.25424Z" stroke="white" stroke-linecap="round" stroke-linejoin="round"/>
<path d="M5.02804 7.61115C6.46092 7.61115 7.79638 6.76685 8.72592 5.30555C9.09125 4.73321 9.09125 3.7712 8.72592 3.19884C7.79638 1.73755 6.46092 0.89325 5.02804 0.89325C3.59515 0.89325 2.25969 1.73755 1.33014 3.19884C0.964822 3.7712 0.964822 4.73321 1.33014 5.30555C2.25969 6.76685 3.59515 7.61115 5.02804 7.61115Z" stroke="white" stroke-linecap="round" stroke-linejoin="round"/>
</svg>
