<svg width="40" height="40" viewBox="0 0 40 40" fill="none" xmlns="http://www.w3.org/2000/svg">
<path d="M19.6158 0C8.8075 0 0 8.8075 0 19.6158C0 30.4241 8.8075 39.2316 19.6158 39.2316C30.4241 39.2316 39.2316 30.4241 39.2316 19.6158C39.2316 8.8075 30.4241 0 19.6158 0ZM28.9922 15.1042L17.87 26.2263C17.5954 26.501 17.2227 26.6579 16.8304 26.6579C16.438 26.6579 16.0653 26.501 15.7907 26.2263L10.2395 20.6751C9.67059 20.1062 9.67059 19.1646 10.2395 18.5958C10.8083 18.0269 11.7499 18.0269 12.3187 18.5958L16.8304 23.1074L26.9129 13.0249C27.4817 12.456 28.4233 12.456 28.9922 13.0249C29.561 13.5938 29.561 14.5157 28.9922 15.1042Z" fill="white"/>
</svg>
