<svg width="17" height="16" viewBox="0 0 17 16" fill="none" xmlns="http://www.w3.org/2000/svg">
<rect width="17" height="16" rx="4" fill="#0ECA65"/>
<path d="M10.5601 7.94708C10.5601 8.96452 9.73789 9.78669 8.72045 9.78669C7.70301 9.78669 6.88086 8.96452 6.88086 7.94708C6.88086 6.92964 7.70301 6.10748 8.72045 6.10748C9.73789 6.10748 10.5601 6.92964 10.5601 7.94708Z" stroke="white" stroke-linecap="round" stroke-linejoin="round"/>
<path d="M8.72051 12.1967C10.5344 12.1967 12.225 11.1279 13.4018 9.27799C13.8642 8.55344 13.8642 7.3356 13.4018 6.61104C12.225 4.76115 10.5344 3.69232 8.72051 3.69232C6.90657 3.69232 5.21597 4.76115 4.03924 6.61104C3.57676 7.3356 3.57676 8.55344 4.03924 9.27799C5.21597 11.1279 6.90657 12.1967 8.72051 12.1967Z" stroke="white" stroke-linecap="round" stroke-linejoin="round"/>
</svg>
